<svg  width="0" height="0" version="1.1" xmlns="http://www.w3.org/2000/svg" xmlns:xlink="http://www.w3.org/1999/xlink">
  <defs>

    <symbol id="cross" viewBox="0 0 440.5 440.5">
      <title>Cross</title>
      <rect class="cls-1" x="1.44" y="206.97" width="518.15" height="98.07" rx="4" ry="4" transform="translate(585.43 227.2) rotate(136.59)"/><rect class="cls-1" x="1.44" y="206.97" width="518.15" height="98.07" rx="4" ry="4" transform="translate(213.29 585.43) rotate(-133.41)"/>
    </symbol>

    <symbol id="checkmark"  viewBox="0 0 501.18 363.46">
      <title>Checkmark</title>
      <g id="checkmark-group"><rect class="cls-1" x="-5.33" y="262.35" width="263.7" height="83.35" rx="4" ry="4" transform="translate(253.15 -60.15) rotate(46.59)"/>
      <rect class="cls-1" x="101.31" y="201.6" width="440.41" height="83.35" rx="4" ry="4" transform="translate(714.98 135.73) rotate(136.59)"/></g>
    </symbol>

    <!-- <symbol id="girl" viewBox="0 0 140 360.83">

      <path fill="#f9a675" d="M21.38,145h0a12.17,12.17,0,0,1,11.9,12.42v86.14A12.17,12.17,0,0,1,21.38,256h0a12.17,12.17,0,0,1-11.9-12.42V157.4A12.17,12.17,0,0,1,21.38,145Z"/>
<path fill="#f9a675" d="M128,145h0a12.17,12.17,0,0,1,11.9,12.42v86.14A12.17,12.17,0,0,1,128,256h0a12.17,12.17,0,0,1-11.9-12.42V157.4A12.17,12.17,0,0,1,128,145Z"/>
<path fill="#f1ae88" d="M48.74,246.7h0a13,13,0,0,1,13,13v77a13,13,0,0,1-13,13h0a13,13,0,0,1-13-13v-77A13,13,0,0,1,48.74,246.7Z"/>
<path fill="#f1ae88" d="M101.59,246.7h0a13,13,0,0,1,13,13v77a13,13,0,0,1-13,13h0a13,13,0,0,1-13-13v-77A13,13,0,0,1,101.59,246.7Z"/>
<path fill="#906bae" d="M35.74,338.83h35.9A9.35,9.35,0,0,1,81,348.17h0v8.48a4,4,0,0,1-4,4H36.91a1.17,1.17,0,0,1-1.17-1.17h0V338.83h0Z"/>
<polygon fill="none" stroke="#92278f" stroke-width="4" stroke-miterlimit="10" points="48.18 341.08 56.52 341.08 54.18 358.83 45.68 358.83 48.18 341.08"/>
<polygon fill="#fff" points="49.14 338.83 55.74 338.83 53.17 360.66 46.46 360.66 49.14 338.83"/>
<path fill="#906bae" d="M88.6,338.83h35.9a9.35,9.35,0,0,1,9.35,9.35h0v8.48a4,4,0,0,1-4,4H89.77a1.17,1.17,0,0,1-1.17-1.17h0V338.83h0Z"/>
<polygon fill="none" stroke="#92278f" stroke-width="4" stroke-miterlimit="10" points="103 341.08 111.34 341.08 109 358.83 100.5 358.83 103 341.08"/>
<polygon fill="#fff" points="103.96 338.83 110.56 338.83 107.99 360.66 101.28 360.66 103.96 338.83"/>
<rect width="18.5" height="6.29" x="121.47" y="229.1" fill="#fff"/>
<circle cx="130.72" cy="232.25" r="5.14" fill="#80499d" stroke="#9a6aad" stroke-miterlimit="10"/>
<polygon fill="#d3aa97" fill-opacity=".36" points="126.5 59.86 97.21 59.86 126.5 88.61 126.5 59.86"/>
<polygon fill="#80499d" points="28.02 244.33 121.35 244.33 130.72 309.66 21.38 309.66 28.02 244.33"/>
<path fill="#906bae" d="M128.43,125.83H20.74A11.59,11.59,0,0,0,9.18,137.39V159.5h19.5v83.83h92.67V159.5h18.26a0.39,0.39,0,0,0,.39-0.39h0V137.39A11.59,11.59,0,0,0,128.43,125.83Z"/>
<path fill="#f1ae88" stroke="#92278f" stroke-width="4" stroke-miterlimit="10" d="M100.18,125.83c0,11.84-10.81,21.44-24.16,21.44s-24.16-9.6-24.16-21.44"/>
<g fill="#80499d">
  <path d="M113.62,180.08c0.33,0.24.72,0.33,0.82-.27,0.48,0.11.84,0.65,1.09,0.27,0.6,0.74,0,1.71.14,2.45-0.45-.09-0.59-0.28-0.41.27a1.44,1.44,0,0,0-1.23-.14c-0.3.06-.34-0.82-0.54-0.41a3.62,3.62,0,0,1-.14-1.91C113.85,180.43,113.69,180.59,113.62,180.08Z"/>
  <path d="M105.72,180.08c0.21,0.2.21,0.61,0.68,0.54,0.21,0.84-.21,1.11,0,1.63-0.12.24-.89-0.14-0.27,0.27a4,4,0,0,1-2.32-.41A1.8,1.8,0,0,1,105.72,180.08Z"/>
  <path d="M111.31,181.85c0,0.35-.58.14-0.41,0.68-0.78.05-1.26,0-2,0,0.33-.41,0-0.65-0.41-1.09,0-.38.54-0.34,0-0.54,0.1-.24.25,0,0.41,0-0.34-.8.51,0.09,0.14-0.68A1.74,1.74,0,0,1,111.31,181.85Z"/>
  <path d="M71.94,180.49a3.92,3.92,0,0,1,2,.68c-0.42.7-.07,1.16-0.68,1.91a6.71,6.71,0,0,0-1.5,0c-0.38-.13.2-0.36-0.14-0.54-0.14.09-.14,0.31-0.41,0.27C71.32,181.33,71.38,181.09,71.94,180.49Z"/>
  <path d="M69.08,181c0.48,0.87-.22,1.72-0.14,2-0.28.26-1.32,0-1.77,0.14a2,2,0,0,1,0-2.59A3.61,3.61,0,0,1,69.08,181Z"/>
  <path d="M113.08,185.8c0.09,0.14.31,0.14,0.27,0.41-0.41-.16-0.57-0.15-0.68.27a1.75,1.75,0,0,0-1-.27c-0.27-.11-0.49-0.48-0.27-0.68a0.64,0.64,0,0,1-.41.14,5.48,5.48,0,0,0,0-1.63c0.69,0.46.06-.66,0.54,0a0.14,0.14,0,0,0,0-.27c0.37-.23,1,0.08,1.5-0.14a12,12,0,0,1,.68,1.63C113.33,185.39,113.68,186.19,113.08,185.8Z"/>
  <path d="M115,187.71c0.3,0.25.36,0.6,1,.41a2,2,0,0,0,.14,1.36,2.46,2.46,0,0,1-2.32.82c0.24-.23-0.11-0.47-0.41-0.54a8.89,8.89,0,0,0,0-1.5C114.07,188.15,113.84,187.58,115,187.71Z"/>
  <path d="M100,187.85a4.5,4.5,0,0,0,1.77.27c-0.28.34,0.32,1.07,0.14,1.77-0.47.64-1.58,0.49-2.32,0.54,0.47-.55-0.41-0.39-0.41-1,0-.37.47-0.77,0.27-1.23C99.72,188.2,100,188.21,100,187.85Z"/>
  <path d="M77.94,191a3.67,3.67,0,0,0-1.77-.41c-0.2-.47-0.06-1.53-0.27-1.91,0.09-.41.29,0.13,0.54,0,0-.13-0.17-0.11-0.27-0.14,0.12-.48.62,0.11,0.68-0.55a1.25,1.25,0,0,0,1.23.14,0.92,0.92,0,0,0-.14.27c0.88,0.39.59,1,.54,2A0.46,0.46,0,0,0,77.94,191Z"/>
  <path d="M69.18,190.57c-0.5-.07-0.34-0.23-0.27.27a10.07,10.07,0,0,0-1.77,0c0-.51-0.1-0.77-0.54-0.54,0.33-.37.09-0.61,0.14-1.36,0.85,0.06-.13-0.29.27-0.54,0.43,0.32,1.27-.23,2-0.14C68.79,188.75,69.64,189.81,69.18,190.57Z"/>
  <path d="M74,190.33c-0.42.32-2,.88-2.72-0.27,0-.71.59-1.14,0.41-1.63,0.36,0.19,1-.35,1.77-0.14a3.46,3.46,0,0,0,.41,1C74.12,189.83,73.63,190,74,190.33Z"/>
  <path d="M81.07,192.48c-0.14.77-.07,1.62-0.68,1.36a0.23,0.23,0,0,0,.27.27c-0.64.49-1.54-.32-2.18-0.14,0.29-.46-0.21-0.81-0.14-1.63,0.47,0,.34-0.24.68-0.68A3.51,3.51,0,0,1,81.07,192.48Z"/>
  <path d="M71.54,198.06c-0.09-.3.39-0.43-0.14-0.41a1.44,1.44,0,0,0,0-1c0.38,0.15.75-.71,0.82-1a1.66,1.66,0,0,0,1.23.14,1.38,1.38,0,0,0,.54.68c0.41,0.71-.35,1-0.14,1.63a0.23,0.23,0,0,0-.27.27,13.42,13.42,0,0,0-1.77-.14C71.88,197.83,72,198,71.54,198.06Z"/>
  <path d="M76.85,195.75a3.8,3.8,0,0,0,1.36,0c-0.25.36,0.29,1.06,0.68,0.82a1,1,0,0,0-.14,1.23c-0.29-.29-0.38.31-0.54,0.54-0.32-.25-0.87.14-1.5,0-0.28-.22-0.26-0.74-0.82-0.68a1.27,1.27,0,0,0,.14-1.23C76.31,196.64,76.65,196,76.85,195.75Z"/>
  <path d="M80.66,197.65a3.37,3.37,0,0,0,0-1.5c0.2,0.2.53,0.2,0.41-.27,1.57-.46,2.54.36,2.32,1.63,0,0.27-.7.31-0.27,0.68A2.82,2.82,0,0,1,80.66,197.65Z"/>
  <path d="M87.88,196a3,3,0,0,1-.7,2.31,2.86,2.86,0,0,1-1.77-.68c-0.28-.29.12-0.93-0.14-1.09,0.24-.28.5,0,0.27-0.55,0.23,0,.26-0.11.27-0.27a3.86,3.86,0,0,0,1.77,0C87.54,196.25,87.38,196.09,87.88,196Z"/>
  <path d="M96.6,203.24c0.3,0.37,0,.53.54,0.54a5.22,5.22,0,0,0-.14,1.5c-0.36-.21-0.42-0.15-0.27.27a0.31,0.31,0,0,0-.54.27,3.25,3.25,0,0,0-1.5-.54A1.41,1.41,0,0,1,96.6,203.24Z"/>
  <path d="M74.26,204.05a2.38,2.38,0,0,0-.14,1.5,1.07,1.07,0,0,1-.41-0.14c0.43,0.71-.57,0-0.14.68a2.31,2.31,0,0,0-1.5-.14c0.06-.43-0.34-0.38-0.54-0.54-0.15-1,.46-1.4.54-2a3.13,3.13,0,0,0,1.63.14C73.39,203.83,73.74,204.18,74.26,204.05Z"/>
  <path d="M66.9,205.55a4.59,4.59,0,0,1,.41-1.91,2.16,2.16,0,0,1,2.18.41,2.27,2.27,0,0,1-.41,1.91c-0.44.31-1.06-.1-1.63,0.14C67.7,205.47,67.29,205.95,66.9,205.55Z"/>
  <path d="M92.65,209.23c0.2-.78-0.66-1.24-0.41-2.18,0.29,0.31.67,0,.54-0.41a6.9,6.9,0,0,0,1.63.14c-0.37.45,0.33,0.37,0.41,0.68a1.23,1.23,0,0,1-1.77,1.5C92.92,209.05,92.91,209.27,92.65,209.23Z"/>
  <path d="M74.67,206.78c0.27,0.06,1,.34,1.23,0a0.77,0.77,0,0,0,.68.68,11.89,11.89,0,0,0-.14,1.77c-0.35-.47-0.65,0-0.82.41a4.14,4.14,0,0,1-1.77-1c0.44-.42.13-0.76,0.14-1.36C74.44,207.44,74.37,207.25,74.67,206.78Z"/>
  <path d="M88.29,206.92a3.92,3.92,0,0,1,1.36-.14,2.13,2.13,0,0,1,.68,2.18c-0.29-.2-0.66,0-0.41.41a1.12,1.12,0,0,0-1,0c0-.35-0.53-0.2-0.54-0.54-0.14.09-.14,0.31-0.41,0.27a3.29,3.29,0,0,0,.14-0.54c-0.13,0-.11.17-0.14,0.27-0.45-.25.19-1-0.14-1.63C88.18,207,88.51,207,88.29,206.92Z"/>
  <path d="M64.86,209.23c0.12-.24.51-0.47-0.14-0.41a2.09,2.09,0,0,0,0-1.09c0.45-.41.53-0.28,0.55-0.82a4.6,4.6,0,0,0,1.77.14c-0.43.28-.21,0.5,0.27,0.27-0.39.38-.15,0.38,0.27,0.54-0.33.31-.21,0.44-0.14,1a0.76,0.76,0,0,0-.54.82C66,209.82,65.47,209.18,64.86,209.23Z"/>
  <path d="M78.75,213c-0.7-.06-0.36.29-0.54,0.54-0.79,0-1.36-.69-1.77-0.27a5.83,5.83,0,0,1,.14-2.45c0.68,0.08,1.49.12,2,.14C78.25,211.48,79.18,211.66,78.75,213Z"/>
  <path d="M109.4,216c-0.29.09-1,.38-0.82,0.82-1.92,0-1.86-1.53-1.63-2.72,0.27,0.53.27-.1,0.54-0.14A1.71,1.71,0,0,1,109.4,216Z"/>
  <path d="M84.18,214.27c0.87,0,1,.4,1.63.27a12.84,12.84,0,0,1-.14,2.32c-0.48-.29-0.48,0-0.54.27-0.47-.39-0.46-0.13-1.23-0.14a3.15,3.15,0,0,1-.68-2C83.65,215.25,83.87,214.47,84.18,214.27Z"/>
  <path d="M72.35,219c0-.13-0.17-0.11-0.27-0.14,0.09-.7.57,0.41,0.55-0.27a5,5,0,0,1,1.63.14,13.86,13.86,0,0,1-.14,2.32c-0.63-.43-0.58.35-1.63,0.14a0.55,0.55,0,0,0-.53-0.57l-0.15,0c-0.19-.61.33-1.23,0-1.77C72,218.88,72.1,219.07,72.35,219Z"/>
  <path d="M76.44,220.67a9.87,9.87,0,0,0,.14-1.63,1.85,1.85,0,0,1,2.45.14c0,0.93-.33,1.15-0.27,1.77-0.45-.09-0.59-0.27-0.41.27a1.61,1.61,0,0,0-1.36,0c0-.36.28-0.45-0.27-0.41C76.91,220.41,76.82,220.65,76.44,220.67Z"/>
  <path d="M90.74,222.33c-0.06.36-.52,0.46,0.14,0.54-0.13.59-.47,0.76-0.27,1.36-0.48-.27-0.29,0-0.54.41a2.15,2.15,0,0,1-1.91-1,4.21,4.21,0,0,0,0-1.23c0.23,0.24.47-.11,0.54-0.41a6.8,6.8,0,0,0,1.77,0C90.26,222.54,90.18,222.42,90.74,222.33Z"/>
  <path d="M90.88,231.43c-0.44.72-1.89,0.67-2.72-.41,0.11-.58.46-0.63,0.27-1.23,0.47-.43,2,0,2.32-0.14C90.5,230.45,91,230.48,90.88,231.43Z"/>
  <path d="M75.18,232.25c-0.28-.24,0-0.5-0.54-0.27a1.08,1.08,0,0,1,.14-0.41,0.64,0.64,0,0,1-.41.14c-0.09-.3.39-0.43-0.14-0.41-0.12-.71.59-0.91,0.14-1.23,0.2-.32.72,0.31,0.41-0.41a3.44,3.44,0,0,1,2.18.55,3.3,3.3,0,0,0,0,1.36A7.8,7.8,0,0,1,75.18,232.25Z"/>
  <path d="M79.57,229.66c0.73-.11,1.16.23,1.63,0a4.1,4.1,0,0,1,.41,1.91c-0.42-.31-0.44,0-0.27.41-0.3.09-.43-0.39-0.41,0.14a5.13,5.13,0,0,0-1.5,0c0.32-.36-0.31-0.6-0.54-0.82A14.18,14.18,0,0,1,79.57,229.66Z"/>
  <path d="M96.32,180.33c-0.35.34,0.19,0.55,0.54,0.55a2.92,2.92,0,0,1-.68,1.91c-0.76.11-1.29-.22-1.77,0,0.5-.39-0.46-0.76-0.41-1.5,0.51,0,.38-0.48.27-0.82C94.92,180.75,95.44,180.2,96.32,180.33Z"/>
  <path d="M101.36,182.67c-0.37.25-1.34-.06-1.77,0,0.26-.3-0.22-0.69-0.54-0.82a1.16,1.16,0,0,0,.14-1.23,3.78,3.78,0,0,0,.41.27,3.16,3.16,0,0,1-.14-0.55c0.1,0.1.67,0.34,0.54-.14,0.65-.25.9,0.6,1.09,0C102,180.8,101.68,182.16,101.36,182.67Z"/>
  <path d="M78.07,181.45a0.37,0.37,0,0,0-.41.27,1.08,1.08,0,0,0-.27-0.27c-0.38.22,0,1.29-1.23,1.5,0.21-.51.33-0.38-0.27-0.27a1.77,1.77,0,0,0-.14-1.09,4.26,4.26,0,0,0,.82-1.09c0.74-.21.91,0.19,1.5,0C77.49,180.81,78.18,180.82,78.07,181.45Z"/>
  <path d="M83.11,181.17a2.8,2.8,0,0,0,0,1.23,1.18,1.18,0,0,0-.82.82,1.13,1.13,0,0,0-1.23-.14,0.64,0.64,0,0,0,.14-0.41,0.64,0.64,0,0,1-.41.14c0.25-.46,0,0-0.27-0.27a4.59,4.59,0,0,0,.14-1.77c0.24,0.2.31,0.12,0.27-.27,0.66,0.31.88-.18,1.5-0.14A1.52,1.52,0,0,0,83.11,181.17Z"/>
  <path d="M91.69,182.94a2.53,2.53,0,0,0-1.36,0c0.12-.28-0.21-0.75-0.27-0.41-0.67-.46.29-1.53,0.14-2.18,1.15,0,2,0,2.31.68a1.66,1.66,0,0,0-.14,1.23A0.91,0.91,0,0,0,91.69,182.94Z"/>
  <path d="M85.56,180.49a4.28,4.28,0,0,1,2.18.54c-0.06.3-.31,0.74,0.14,0.82-0.23.27-1,.76-0.68,1.09-0.37.28-1-.26-1.5,0.14,0.16-.61.08-0.17-0.27-0.41,0.25-.46,0,0-0.27-0.27A3.69,3.69,0,0,1,85.56,180.49Z"/>
  <path d="M103.68,186.48a2.08,2.08,0,0,0-1.63-.14c-0.43-.65.26-1.92,0-2.45a1.69,1.69,0,0,0,1.09-.41c0,0.47.67,0.58,1.09,1C104.08,185.33,104.23,185.93,103.68,186.48Z"/>
  <path d="M99.73,184.44a5.08,5.08,0,0,1-.68,1.91c-0.46.24-.79-0.09-1.5,0.14a2.89,2.89,0,0,1-.37-2.16c0.26-.33.49,0.27,0.27-0.41a2.63,2.63,0,0,0,1.36-.27A1.35,1.35,0,0,0,99.73,184.44Z"/>
  <path d="M94.18,186.33a0.64,0.64,0,0,0-.41-0.14,0.64,0.64,0,0,1,.14.41c-0.46-.47-1.57.24-1.23-0.55-0.44-.08-0.19.49-0.54,0.14,0.32-.32-0.28-1.15-0.14-1.91,0.42,0.31.44,0,.27-0.41,0.46,0.39.65-.14,1.36-0.14,0.36,0.31.26,0.78,1,.54a5,5,0,0,0,0,1.63C94.18,186.18,94.25,185.82,94.18,186.33Z"/>
  <path d="M106.4,183.9c0.31,0.25,1.37-.34,2.32-0.14-0.43.43,0.44,1.27,0.27,1.91-0.64.89-1.8,0.55-2.45,0.54C106.73,185.77,106.31,185,106.4,183.9Z"/>
  <path d="M85.18,183.9c0.58,0-.17.31-0.14,0.41s0.3,0,.41.14-0.12,1.41.14,1.63c-0.12.46-.3,0.12-0.54,0a3.16,3.16,0,0,1,.14.55c-0.47-.46-0.56.16-1.09,0.14a2.43,2.43,0,0,0-1.23-.82,1.39,1.39,0,0,0,.14-1.23c0.45-.41.53-0.28,0.54-0.82C84.1,183.78,84.82,184.33,85.18,183.9Z"/>
  <path d="M88.18,184c0.1-.31,1.12.32,1.36-0.14a0.68,0.68,0,0,0,.68.54,14.56,14.56,0,0,0-.14,1.77c-0.47.56-1.67,0-2.32,0.14,0.27-.5-0.38-1.06-0.14-2a1.06,1.06,0,0,1,.41.14,0.65,0.65,0,0,1-.14-0.41,0.23,0.23,0,0,1,.27.27,0.16,0.16,0,1,0,0-.31h0Z"/>
  <path d="M71.67,184.58c-0.15.55,0.06,1.06-.14,1.77-0.59.05-.41,0.24-0.54,0.54a4.88,4.88,0,0,0-1.36-.14c0.33-.4-0.32-0.78-0.68-0.54a2.38,2.38,0,0,0,.14-1.5C70.11,184,70.8,183.88,71.67,184.58Z"/>
  <path d="M80.8,186.21a1.54,1.54,0,0,0-.82.68,1.22,1.22,0,0,0-1.23-.27c0.07-.27-0.19-0.87-0.27-0.55-0.18-1,.47-1.58,1.36-2C80.93,184.16,80.93,185.58,80.8,186.21Z"/>
  <path d="M66.5,184.17a2.75,2.75,0,0,1,.41,2.32,4.33,4.33,0,0,1-1.77.41C64,185.33,64.48,183.9,66.5,184.17Z"/>
  <path d="M104.18,188.12c0-.22,1.07-0.28,1.91-0.41,0,0.44,0,.49.54,0.82,0.17,0.44-.44.1-0.27,0.54-0.82,0-1.25-.44-1.77-0.41C104.35,188.63,104.5,188.16,104.18,188.12Z"/>
  <path d="M108.72,188.26c0.14-.22.54,0.22,0.27-0.41a2.47,2.47,0,0,0,1.36-.14,4.25,4.25,0,0,0,1,1c0.15,0.79-.62,1.37-0.54,1.63-0.76.31-1.17-.22-1.91-0.14,0.21-.51.33-0.38-0.27-0.27C108.95,189.62,108.71,188.6,108.72,188.26Z"/>
  <path d="M96.46,190.57c-0.55-.17-1.58,0-2.18-0.68a7.37,7.37,0,0,1,0-1.5c0.35-.37.77,0.11,0.54-0.54a2,2,0,0,0,1.5.14c-0.06.43,0.34,0.38,0.54,0.55C97.11,189.75,96.44,189.86,96.46,190.57Z"/>
  <path d="M83.25,188.53a10,10,0,0,0-.14,2c-0.2-.43-0.55-0.21-0.54.27-0.51-.43-1.78.22-1.36-0.54-0.14.09-.14,0.31-0.41,0.27a17.73,17.73,0,0,1-.14-2.18,3.77,3.77,0,0,0,.41.27,3.29,3.29,0,0,1-.14-0.54,0.46,0.46,0,0,0,.82-0.14,1.48,1.48,0,0,0,1.23.27C82.77,188.76,82.64,188.64,83.25,188.53Z"/>
  <path d="M92.1,190.71c-0.12,0-.13,0-0.14-0.14a14.67,14.67,0,0,0-1.77,0c0.17-.66-0.63-1.2-0.27-2.18a7.24,7.24,0,0,1,1.77-.41,0.44,0.44,0,0,0,.68.41A5.25,5.25,0,0,1,92.1,190.71Z"/>
  <path d="M87.88,190c0,0.17-.41.18-0.41,0,0.1,0.87-1,.55-1.77.68,0.16-.61.08-0.17-0.27-0.41a4.7,4.7,0,0,1-.14-1.77,2.63,2.63,0,0,1,2-.27C88,188.62,87.68,189.51,87.88,190Z"/>
  <path d="M104.91,190.33a0.74,0.74,0,0,1,.68-0.41,3.66,3.66,0,0,0-.27.41c0,0.13.17,0.11,0.27,0.14C105.46,190.8,105.11,190.33,104.91,190.33Z"/>
  <path d="M92,192.33a1.55,1.55,0,0,1,2.59,0c0.17,0.45-.36.71,0.27,1,0,0.2-.86.21-0.41,0.41a0.67,0.67,0,0,0-.55.54,4.65,4.65,0,0,0-1.77-.41,0.35,0.35,0,0,0-.14-0.68C91.93,192.92,92.35,192.48,92,192.33Z"/>
  <path d="M103.95,192.21h-0.68a0.94,0.94,0,0,0-.27,1,4.06,4.06,0,0,1,.68.54c-0.12.15-.33,0-0.41,0.41a2.55,2.55,0,0,0-1.09-.14c-0.06-.26,0-0.59-0.41-0.54a3.53,3.53,0,0,1,.54-2c0.62,0.2,1.67-.06,1.77.27C103.53,191.62,104,191.94,103.95,192.21Z"/>
  <path d="M109.26,192.48c-0.24.55-.6,0.72-0.27,1.23-0.71-.15-1.25.54-2.32,0.14,0.3-.28,0-0.46-0.27-0.54a2.85,2.85,0,0,0,0-1.5c0.36,0.21.42,0.15,0.27-.27a0.4,0.4,0,0,1,.27.27,0.14,0.14,0,0,0,0-.27c0.28-.26,1.32,0,1.77-0.14-0.64.35,0.27,0.58,0.14,1.23A0.64,0.64,0,0,1,109.26,192.48Z"/>
  <path d="M111,193.33a2.24,2.24,0,0,0,0-1.36,2.12,2.12,0,0,1,2.86.14c-0.61.3,0.34,1-.55,1.09a0.41,0.41,0,0,0,.27.27,1.08,1.08,0,0,0-.82.54,3.2,3.2,0,0,0-1.09,0A1.93,1.93,0,0,0,111,193.33Z"/>
  <path d="M97.41,193.57a4.09,4.09,0,0,1-.27-1.63c0-.29.72,0.15,0.27-0.27a2.26,2.26,0,0,1,2.32.55,3.48,3.48,0,0,1-.27,1.5c-0.22.17-.56-0.13-0.27,0.27-0.37.24-1.1-.06-1.63,0.14,0.21-.51.33-0.38-0.27-0.27a3.29,3.29,0,0,1-.14-0.54A1.08,1.08,0,0,0,97.41,193.57Z"/>
  <path d="M73.71,192.48c-0.2-.29.69,0.31,0.27-0.54a3.84,3.84,0,0,0,.41.27,3.16,3.16,0,0,1-.14-0.55,2.92,2.92,0,0,0,1.77.14,0.23,0.23,0,0,0,.27.27c0,0.22-.23.59,0,0.27,0.33,0.46-.28,1.24-0.14,1.77-0.5-.07-0.34-0.23-0.27.27-0.67,0-1.36-.29-1.77,0a3.16,3.16,0,0,0,.14-0.55c-0.14.09-.14,0.31-0.41,0.27A9.69,9.69,0,0,0,73.71,192.48Z"/>
  <path d="M66.77,192.07c0.22,0-.22.65,0.41,0.54a2.74,2.74,0,0,0,0,1.36,0.64,0.64,0,0,0-.41-0.14,3.16,3.16,0,0,1,.14.55,0.23,0.23,0,0,1-.27-0.27c-0.41.09,0.13,0.29,0,.54a2.77,2.77,0,0,0-1.5-.14c0-.11.06-0.31,0.14-0.27-0.91-.36-0.48-1.14-0.68-2,0.52,0.1.36-.13,0.82-0.41a1.32,1.32,0,0,0,1.09,0C66.18,192,66.76,192.33,66.77,192.07Z"/>
  <path d="M71.94,192.48a6.82,6.82,0,0,1-.68,2,9.39,9.39,0,0,0-1.63-.14,1.39,1.39,0,0,0-.54-0.82c0.41-.54-0.29-1.26.41-1.09,0-.13-0.17-0.11-0.27-0.14,0.12-.4.2-0.15,0.54-0.14C69.44,191.61,71.38,191.89,71.94,192.48Z"/>
  <path d="M89,194.38a0.66,0.66,0,0,0-1-.41c0.12-.28-0.21-0.75-0.27-0.41-0.21-.37.08-0.63-0.14-1.09,0.72-.27,1.66.55,2.18-0.27a2.41,2.41,0,0,0,.68.14A12.77,12.77,0,0,0,90,194,1.29,1.29,0,0,0,89,194.38Z"/>
  <path d="M111,195.61c0.13,0.24,0,.73.41,0.68a1.32,1.32,0,0,0,0,1.09c-0.3,0-.87.48-0.68,0.54-0.69.28-1.37-.22-1.91-0.14-0.17-.68,0-1.17-0.14-1.91,0.35,0.25.43,0,.27-0.41a0.63,0.63,0,0,0,1.09-.27c0.18,0,.41.55,0.55,0.14C110.85,195.48,110.4,195.88,111,195.61Z"/>
  <path d="M106,195.88c0.14-.09.14-0.31,0.41-0.27a3.29,3.29,0,0,0-.14.54c0.14-.09.14-0.31,0.41-0.27,0.06,0.26-.42.59,0.14,0.54a3.49,3.49,0,0,1-.27,1.09s-0.65.08-.14,0.27a5.83,5.83,0,0,1-2.18.14,1.74,1.74,0,0,1,1.77-2.45C106.25,195.13,106,195.7,106,195.88Z"/>
  <path d="M115.39,197.93c-0.56.19-1.11-.33-1.36,0-0.09-.47-0.8-1-0.68-1.77,0.61-.1.52-0.49,0.27-0.82,0.65,0.11,1.55.06,2,.14,0.37,0.35-.11.77,0.54,0.54a1.68,1.68,0,0,0-.14,1.36C115.8,197.12,115.44,197.55,115.39,197.93Z"/>
  <path d="M95.1,195.88c-0.09-.14-0.31-0.14-0.27-0.41,0.79,0,1.58.47,2,.41-0.12.24-.51,0.47,0.14,0.41a2.29,2.29,0,0,1-.54,1.91c-0.77.2-1.49-.46-2-0.41,0.4-.5-0.19-0.65-0.14-1.5C95,196.14,94.33,195.89,95.1,195.88Z"/>
  <path d="M101.5,195.47c-0.26.63,0.16,0.15,0.54,0.54,0.1,1-.36,1.29-0.41,2-0.3-.59-0.7.27-1.5,0a3,3,0,0,1-.68-2.18c0.68,0.4-.09-0.52.82-0.14C99.53,195.21,101.12,195.88,101.5,195.47Z"/>
  <path d="M90.18,195.88q1-.09,2-0.27c-0.1.52,0.13,0.36,0.41,0.82-0.34.56,0.34,0.94-.41,1.09,0,0.23.11,0.26,0.27,0.27a3.44,3.44,0,0,1-2.18.41c0.21-.51.33-0.38-0.27-0.27A6.27,6.27,0,0,1,90.18,195.88Z"/>
  <path d="M69.49,197.79a2.69,2.69,0,0,0-.54.68c-0.82.29-1.55-.7-2-0.27a3,3,0,0,0-.14-1.36c0.17-.52.82-0.44,0.68-0.82a1.5,1.5,0,0,1,1.63.41c0.17-.44-0.44-0.1-0.27-0.54C69.72,196.49,69.25,196.94,69.49,197.79Z"/>
  <path d="M113.62,199.15c-0.23.43-.33,0.58,0.27,0.41a2.74,2.74,0,0,1-1,2,3.44,3.44,0,0,0-1.5-.14,0.37,0.37,0,0,0-.27-0.41c0.13-.45.27,0.15,0.41,0.14s-0.13-.58-0.41-0.55c-0.2-1,.59-1,0.14-1.63C111.84,199.21,112.75,198.78,113.62,199.15Z"/>
  <path d="M92.51,199.15c0.49,0.46.81-.24,1.5-0.14-0.09.61,0.23,0.31,0.54,0.27a9.23,9.23,0,0,1-.14,2.32,2.75,2.75,0,0,0-1.5.27c-0.19,0-.11-0.34-0.14-0.54-0.14.09-.14,0.31-0.41,0.27a3.29,3.29,0,0,0,.14-0.54c-0.14.09-.14,0.31-0.41,0.27A8.38,8.38,0,0,1,92.51,199.15Z"/>
  <path d="M104.36,199.42c-0.08.13-.32,0.5,0.14,0.41,0.21,1.06-.57,1-0.14,1.63-0.24-.12-0.81-0.17-0.41.14-0.57.32-1.71-.48-1.77-0.14-0.6.21,0.06-.18,0-0.41a0.74,0.74,0,0,0-.41-0.27,1.53,1.53,0,0,1,2.18-1.63C104.18,199.33,103.73,199.69,104.36,199.42Z"/>
  <path d="M106.95,199.15c0.45-.4,1.43.09,1.77-0.14-0.2.24-.13,0.31,0.27,0.27,0.29,0.55-.24,1.66,0,1.91-0.09.41-.29-0.13-0.54,0,0,0.13.17,0.11,0.27,0.14-0.36.29-.46,0.12-1.36,0.27a0.85,0.85,0,0,0-.54-0.54c-0.17.44,0.44,0.1,0.27,0.54a4,4,0,0,1-.54-0.41c0.12-.24.51-0.47-0.14-0.41a4.18,4.18,0,0,0,.27-1.63C106.91,199.27,107.53,199.27,106.95,199.15Z"/>
  <path d="M85.7,201.33c-0.53-.08-0.48.43-0.82,0.54-0.85.21-1.08-.76-1.63-0.41a11.23,11.23,0,0,1,0-1.77,0.42,0.42,0,0,0,.54-0.54,1.82,1.82,0,0,0,1.5.14A3.84,3.84,0,0,1,85.7,201.33Z"/>
  <path d="M89.92,199.7c0.09,0.41.29-.13,0.54,0a5.14,5.14,0,0,0-.27,1.91c-0.71.37-1.35,0-2.18,0a3.33,3.33,0,0,1-.14-2c0.28,0.12.75-.21,0.41-0.27,0.67-.24,1.45.19,1.91,0.14C90.25,199.66,90.09,199.68,89.92,199.7Z"/>
  <path d="M76.44,200a11.26,11.26,0,0,1,0,1.36c-0.12.31-.82,0.15-0.54,0.68a2.11,2.11,0,0,0-1.5,0c-0.14-.43,0-0.61-0.55-0.27,0.06-.6.12-1.51,0.14-1.91A1.87,1.87,0,0,1,76.44,200Z"/>
  <path d="M78.89,199.42c0.19-.31,1.54.19,1.5-0.14,0.44,0.27.17,0.63,0.82,0.68a4.27,4.27,0,0,0-.41,1.5c-0.19.71-.47,0.11-0.82,0.54a2.11,2.11,0,0,0-1.09-.27c0.28-.43-0.09-0.18-0.41-0.14,0.36-.35,0-0.79-0.14-1.36,0.24-.12.67-0.38,0.14-0.54,0-.34.46,0,0.55,0a0.21,0.21,0,0,0-.13-0.27h0Z"/>
  <path d="M67,199.7c-0.21.36-.15,0.42,0.27,0.27a4.88,4.88,0,0,0-.14,1.77c-0.5-.07-0.34-0.23-0.27.27-0.3.09-.43-0.39-0.41,0.14-0.65-.28-1.29.29-1.22-0.41-0.14.09-.14,0.31-0.41,0.27,0.09-.45.27-0.59-0.27-0.41,0.39-.46-0.33-1.79.54-1.5,0-.23-0.11-0.26-0.27-0.27C65.27,199.22,66.07,199.67,67,199.7Z"/>
  <path d="M71.67,199.56c-0.08.28-.41,0.27-0.14,0.54,0.14-.09.14-0.31,0.41-0.27a5.82,5.82,0,0,0-.14,1.77,1.07,1.07,0,0,1-.41-0.14c0.43,0.71-.57,0-0.14.68a4.43,4.43,0,0,0-1.5-.14,0.64,0.64,0,0,0,.14-0.41c-0.14.09-.14,0.31-0.41,0.27a3.29,3.29,0,0,0,.14-0.54c-0.14.09-.14,0.31-0.41,0.27,0.17-.65,0-1.1.14-1.91C69.66,200,70.49,199.17,71.67,199.56Z"/>
  <path d="M109.54,202.83c0.12,0,.13,0,0.14.14a1.23,1.23,0,0,0,1.09,0c0.14,0.17,0,.53.54,0.27-0.12.24-.51,0.47,0.14,0.41a6.53,6.53,0,0,0,0,1.36c-0.47-.12-0.47.21-0.27,0.41-0.42.29-1.58-.3-2.32-0.27,0.24-.49-0.13-0.4-0.14-1.5,0.23,0,.26-0.11.27-0.27A0.39,0.39,0,0,0,109.54,202.83Z"/>
  <path d="M106.81,203.78a6,6,0,0,0-.27,1.5c-0.28-.11-0.61-0.12-0.27.14-0.25.24-1.29,0-1.77,0.14,0.07-.5.23-0.34-0.27-0.27,0.3-.59-0.19-0.54-0.14-1.63,0.3,0.29.29,0,.27-0.41,0.42,0.54.67-.44,1.5-0.27A1.71,1.71,0,0,0,106.81,203.78Z"/>
  <path d="M115.26,205.55a1.72,1.72,0,0,1-1.63-2.31c0.51,0.21.38,0.33,0.27-.27a12,12,0,0,0,2,.14c-0.08.13-.32,0.5,0.14,0.41a6.74,6.74,0,0,0,0,1.63c-0.35-.68-0.33.17-0.27,0.14C115.67,205.33,115.12,204.91,115.26,205.55Z"/>
  <path d="M100,203.24c0.55-.41,1.43.32,2,0.14-0.31.49,0.14,0.88,0.14,1.63-0.54-.12,0,0.52-0.68.27a0.64,0.64,0,0,1,.14.41,13.61,13.61,0,0,0-1.77-.14,3.52,3.52,0,0,1-.41-1.77C99.95,203.55,100,203.51,100,203.24Z"/>
  <path d="M80.66,203.92c0.45,0.44.3-.19,0.55-0.55,0.17,0.15.28,0.12,0.27-.14a5.52,5.52,0,0,0,1.77.27c-0.09.53,0.22,1,.14,1.91-0.35-.25-0.43,0-0.27.41-0.58-.25-1.37.59-1.63-0.27-0.14.09-.14,0.31-0.41,0.27a3.29,3.29,0,0,0,.14-0.54c-0.14.09-.14,0.31-0.41,0.27A4.69,4.69,0,0,0,80.66,203.92Z"/>
  <path d="M88,203.92a2.08,2.08,0,0,0,0,1.36c-0.06.2-.17,0-0.41,0,0.38,1-.27-0.22-0.27.68-0.68,0-1.12-.5-1.63-0.27,0.21-.51.33-0.38-0.27-0.27,0.06-.36.52-0.46-0.14-0.54a1,1,0,0,0,0-.82c0.58-.17.28-0.19,0.55-0.68,0.58,0.23.87-.18,1.5-0.14C87.26,203.93,88.18,203.77,88,203.92Z"/>
  <path d="M90.06,203.65c0.25-.22.66,0.4,0.41-0.41,0.39,0.37,1.21-.25,1.91.27q-0.12.53,0.41,0.41c-0.46.38-.08,0.65-0.14,1.36-0.42-.31-0.44,0-0.27.41a19.22,19.22,0,0,1-2-.14c0-.22-0.2-0.22-0.32-0.22C89.95,204.7,90.53,204,90.06,203.65Z"/>
  <path d="M76.3,203.78c0-.15.14-0.08,0.14,0,0.75-.5,1-0.23,1.91-0.41a0.65,0.65,0,0,0-.14.41c0.28-.3.59,0,0.14,0.14,0.09,0.41.29-.13,0.54,0-0.39.38-.13,1-0.14,1.5-0.61-.09-0.31.23-0.27,0.54-0.63-.16-1.23.23-2-0.14,0.29,0.13.06-.9-0.27-0.27,0.26-.31.31-0.41-0.14-0.54C76,204.56,76.47,204.14,76.3,203.78Z"/>
  <path d="M109.26,206.92c0.06,0.9-.53,1.84-0.27,1.91-0.19.25-.65-0.2-0.68,0.41a0.74,0.74,0,0,0-1-.14c-0.07-.35-0.32-0.88-0.68-0.54a16.94,16.94,0,0,1,0-1.77c0.51,0.21.38,0.33,0.27-.27,0.53,0.32.86-.14,1.77-0.14A0.45,0.45,0,0,0,109.26,206.92Z"/>
  <path d="M113.62,206.51c-0.19.41-.11,0.79,0.41,0.82a3,3,0,0,0-.14,1.09c-0.06.33-.82,0.26-0.68,0.54s-1.07-.28-1.23.14c-0.15-.58-0.79-1.17-0.68-2.18,0.33,0.4.54-.37,0.41-0.27C112.37,206.17,113,206.81,113.62,206.51Z"/>
  <path d="M99.32,207.05c0.14-.09.14-0.31,0.41-0.27-0.24.47,0.16,0.74,0.27,1.23-0.17.18-.41,0.27,0,0.41-0.37,1-1.52.62-2.18,0.68,0.33-.66-0.37,0,0-0.68a3.16,3.16,0,0,1-.55.14,2.08,2.08,0,0,0,.14-1.5c0.36-.37.77,0.11,0.54-0.54C98.35,207,99.53,206.33,99.32,207.05Z"/>
  <path d="M104.09,207.05c0.09,0.41.29-.13,0.54,0a2.17,2.17,0,0,0-.14,1.63c-0.47-.09-0.21.25-0.68,0.41-0.68.33-1.31-.58-1.36,0-0.88-.49-0.18-1.18-0.41-2.18,0.24,0.2.31,0.13,0.27-.27a8.37,8.37,0,0,0,1.5-.14c0,0.5.2,0.34,0.55,0.27C104.41,207,104.25,207,104.09,207.05Z"/>
  <path d="M78.89,207.05c0.28,0,1.22-.3,1.5-0.27s-0.06.55,0.27,0.14c0.45,0.3,0,.34.55,0.41-0.42.3,0,.61,0.14,1.09-0.32.2-.5,0.21-0.27,0.68a0.4,0.4,0,0,1-.27-0.27c-0.37.12,0.41,0.3,0,.54-0.24-.12-0.47-0.51-0.41.14a4.16,4.16,0,0,0-1.63-.27c-0.08-.44.49-0.19,0.14-0.55-0.14.09-.14,0.31-0.41,0.27a3.13,3.13,0,0,0,.14-1.63C78.82,207.7,79.3,207.21,78.89,207.05Z"/>
  <path d="M83.93,209a0.23,0.23,0,0,0-.27.27c-0.64,0,.3-0.84-0.54-0.68a1.39,1.39,0,0,0,.14-1.23c-8.85,9.67,1.5-.51,2.32-0.41a3.81,3.81,0,0,0-.27.41,3.16,3.16,0,0,1,.55-0.14c-0.06.58-.12,1.3-0.14,1.77a1.93,1.93,0,0,0-.54.27C84.79,209.33,83.59,209.52,83.93,209Z"/>
  <path d="M69.9,207.05c0.55-.33.9,0.15,1.5-0.14a1.43,1.43,0,0,0,.68,1c-0.08.08-.32,0.65,0,0.68-0.48.57-.52,0.41-0.54,1-0.89.26-1.53-.66-2-0.27,0.09-.45.28-0.59-0.27-0.41a2.8,2.8,0,0,0,.14-1.36A0.39,0.39,0,0,0,69.9,207.05Z"/>
  <path d="M111.31,210.59c-0.43.28-.21,0.5,0.27,0.27-0.46.35,0.29,1-.14,1.77a7.5,7.5,0,0,1-2,.41,1.07,1.07,0,0,1,.14-0.41c-0.28.3-.57,0-0.27-0.27a0.64,0.64,0,0,1-.41.14,4.88,4.88,0,0,0,.14-1.77C109.38,210.89,110.12,210.42,111.31,210.59Z"/>
  <path d="M114.44,210.46c0,0.13-.17.11-0.27,0.14a2.74,2.74,0,0,1,2.31.68c-0.35.24-.19,1-0.54,1.23,0.23,0,.26-0.11.27-0.27,0.41,0.09-.13.29,0,0.54a2.82,2.82,0,0,1-2.72-.41c0.37-.28.17-1,0.14-1.5C114,210.87,113.95,210.33,114.44,210.46Z"/>
  <path d="M91,210.73a1.35,1.35,0,0,0,1.23-.14c0,0.67.22,0.58,0.54,0.68,0,1.55-.3,1.65-1,2.18-0.53-.06-0.72-0.55-1.23-0.27,0.26-.5-0.09-0.34-0.41-0.55a3.07,3.07,0,0,0,0-1.36c0.53,0.51.24-.38,0.27-0.41S91.12,211.48,91,210.73Z"/>
  <path d="M95.37,210.59c0.65-.08,1.5.7,1.63,0.27A3.3,3.3,0,0,1,97,213c0,0.21-.58-0.49-0.54.27a1.12,1.12,0,0,0-1,0c0.14-.41-0.3-0.24-0.54-0.27a2.45,2.45,0,0,1-.14-0.68c-0.13,0-.11.17-0.14,0.27-0.45-.23.21-1-0.14-1.5,0.1-.31.11,0.21,0.27,0.14,0.49-.22-5.19-11.31-4.9-11.58C89.86,199.75,95.59,211.33,95.37,210.59Z"/>
  <path d="M100,210.59a15.36,15.36,0,0,0,2,.14c-0.09.45-.28,0.59,0.27,0.41a4.62,4.62,0,0,0-.14,1.5c-0.21.24-1.09,0.11-.82,0.68-0.33-.29-0.29-0.19-0.82-0.14a3.8,3.8,0,0,1-1.09-1.77c0.62,0.53.08-.38,0.27-0.54S100.36,211.51,100,210.59Z"/>
  <path d="M104.63,210.73c0.66-.4,1.79.24,2.32,0.27a3.52,3.52,0,0,0-.14,1.77c-0.23-.24-0.47.11-0.54,0.41a2.51,2.51,0,0,0-1.36,0,1.07,1.07,0,0,1,.14-0.41c-0.8.36-.12-0.49-0.82-0.14a14.46,14.46,0,0,0,.14-1.77C104.48,211.14,105,210.9,104.63,210.73Z"/>
  <path d="M87.88,212.91a0.73,0.73,0,0,0-.68.54,3.09,3.09,0,0,0-1.23-.27c-1-1.74.06-2.84,1.63-2.32a2.71,2.71,0,0,1,.41,2C88,213.06,87.88,213,87.88,212.91Z"/>
  <path d="M74.26,211.68c0.09,0.13,0,.69.14,1.09a1.07,1.07,0,0,1-.41-0.14,3.16,3.16,0,0,1,.14.55c-0.41.13-.82,0-0.54,0.54a1.15,1.15,0,0,0-1.23-.14,1.65,1.65,0,0,0-.82-0.82,6.87,6.87,0,0,0,.41-1.77,5.15,5.15,0,0,0,1.77-.14c-0.82.61,0.73,0.07,0,.54C74.45,211.33,73.81,211.82,74.26,211.68Z"/>
  <path d="M83.66,211.68c0,0.5-.5,1.13-0.27,1.36-0.08-.12-0.65.4-0.27,0.27a2,2,0,0,1-2.3-1.64s0-.08,0-0.13c0.08-.33.75-0.21,0.54-0.54a10.8,10.8,0,0,1,1.91-.14C82.9,211.26,83.1,211.54,83.66,211.68Z"/>
  <path d="M69.76,211.68c-0.24.45,0.07,0.6,0,1.23-0.9.93-2.42,0.88-2.72,0s0.52-1.28.14-1.63a6.55,6.55,0,0,1,1.91-.27C69.09,211.51,69.32,211.33,69.76,211.68Z"/>
  <path d="M102.18,216.18c-0.19-.41,0-1.1-0.14-1.63,0.51,0.21.38,0.33,0.27-.27a0.23,0.23,0,0,1,.27.27c0.41-.09-0.13-0.29,0-0.54,0.34,0.47,1,0,1.77.14-0.43.28-.21,0.5,0.27,0.27-0.1.1-.34,0.67,0.14,0.54C105,217.42,102.43,216.69,102.18,216.18Z"/>
  <path d="M114.18,215.77a1.48,1.48,0,0,0-.82.82c-0.15.27-.73-0.17-1.23,0a4.85,4.85,0,0,1-.82-1.77,2.37,2.37,0,0,1,1.91-.82C114,214.51,113.86,215.23,114.18,215.77Z"/>
  <path d="M97.82,216.72c0.21-.51.33-0.38-0.27-0.27,0.06-.36.52-0.46-0.14-0.54a2,2,0,0,0,0-1.23,0.64,0.64,0,0,0,.41.14c-0.46-.68.54,0.06,0.14-0.68,0.35,0.34.67-.13,1.23,0-0.12.48,0.45,0.24,0.41,0,0.16,0.25-.09.89,0.54,1-0.36.44,0.23,1-.41,1.09C99.95,217.27,98.64,216.51,97.82,216.72Z"/>
  <path d="M87.88,215.09c0.06-.2.17,0,0.41,0,0-.23-0.11-0.26-0.27-0.27,0.12-.4.2-0.15,0.55-0.14a0.65,0.65,0,0,1-.14-0.41c0.38,0.51.65-.22,1.5,0a0.82,0.82,0,0,0,.82.68c-0.3.66,0.14,1.56-.54,1.36a0.4,0.4,0,0,0,.27.27c-0.09.41-.29-0.13-0.54,0,0.09,0.14.31,0.14,0.27,0.41-0.94,0-1-.31-1.63,0,0.11-.52-0.29-0.53-0.55-0.68A1.29,1.29,0,0,0,87.88,215.09Z"/>
  <path d="M92.78,214.41c0.63-.36,1.64.06,2.32,0.41a2.42,2.42,0,0,0-.14,1.63c-0.24-.25-0.47,0-0.41.41a4,4,0,0,0-1.36,0,1.62,1.62,0,0,1-.54-1c-0.37,0-.27.23-0.54,0C92.36,215.2,92.7,214.61,92.78,214.41Z"/>
  <path d="M65.18,216.72a7.25,7.25,0,0,0-.27-1.63c0.93-.51,1.66-0.81,2.59,0,0.11,0.73-.23,1.16,0,1.63-0.49.42-2,.84-1.91,0-0.13,0-.11.17-0.14,0.27a4,4,0,0,1-.54-0.41C64.95,216.33,65.18,216.5,65.18,216.72Z"/>
  <path d="M78.89,214.54c0.28,0.31,1.33-.33,2-0.14-0.33.35,0.24,0.53,0.27,0.54,0.37,1.38-.37,1.49-0.68,2.18-0.24,0-.79-0.37-1,0-0.49-.35-0.27-0.65-0.82-0.54A8.25,8.25,0,0,0,78.89,214.54Z"/>
  <path d="M69.63,214.95c0-.15.14-0.08,0.14,0,0.29,0.06.26-.2,0.27-0.41a7.85,7.85,0,0,0,1.91,0c-0.26.52,0.25,1.08,0.14,1.91a1,1,0,0,0-.54.68,2.39,2.39,0,0,0-1.09.14c0-.12-0.5-0.87-0.82-0.54A11.65,11.65,0,0,0,69.63,214.95Z"/>
  <path d="M109.54,220.67a0.64,0.64,0,0,0,.14-0.41,3.16,3.16,0,0,1-.55.14c0.39-.38.15-0.38-0.27-0.54,0.26-.77.6-1.34,0.68-1.77,0.73,0.29,1.55,0,2,.41,0,0.45.17,0.94,0.14,1.5-0.5,0-.34.2-0.27,0.54-0.22-.18-0.55-0.18-0.27.14A4.28,4.28,0,0,0,109.54,220.67Z"/>
  <path d="M116.35,220.13a3.05,3.05,0,0,1-1.77.68c0.42-.63-0.32,0-0.27-0.68a1.07,1.07,0,0,0-.41.14c-0.14-.08.38-0.47-0.27-0.54a0.71,0.71,0,0,0,0-1c0.35,0.06,1.11-.57.54-0.54a2.61,2.61,0,0,1,1.77.14A3.1,3.1,0,0,1,116.35,220.13Z"/>
  <path d="M106.4,220.67c-0.38.23-.83-0.09-1.36,0.14a1.28,1.28,0,0,0-.82-0.82,0.93,0.93,0,0,0,.14-1.09,1.53,1.53,0,0,1,2.72,1C106.79,219.83,106.57,220.54,106.4,220.67Z"/>
  <path d="M87.61,218.33c0.46,0,.4.6,0.82,0.68a1.69,1.69,0,0,0-.14,1.5c-0.14-.32-0.64.28-0.41,0.27-0.76.43-1.35,0-2.18-.41a2.31,2.31,0,0,0,0-1.63C86,218.47,87.34,218.7,87.61,218.33Z"/>
  <path d="M91.42,218.33a1.38,1.38,0,0,0,.82,0c0.18,0.79.33,0.72,0.82,0.82a1.25,1.25,0,0,0-.14,1.23c-0.61-.09-0.31.23-0.27,0.54-0.23-.19-0.54-0.44-0.54.14-0.6,0-1-.49-1.5-0.27,0.07-.5.23-0.34-0.27-0.27,0.19-.23.44-0.54-0.14-0.54,0.08-.52.49-0.78,0.27-1.23C90.91,218.85,90.94,218.82,91.42,218.33Z"/>
  <path d="M97.41,218.76a13.67,13.67,0,0,0-.14,1.77c-0.36-.21-0.42-0.15-0.27.27-0.3.09-.43-0.39-0.41,0.14-0.71,0-1.36.14-1.23-.41-0.14.09-.14,0.31-0.41,0.27a3.29,3.29,0,0,0,.14-0.54c-0.74.51,0.31-.68-0.68-0.68,0.46-1.34,1.22-1.22,2.72-1.09C96.93,219,96.81,218.87,97.41,218.76Z"/>
  <path d="M102.45,220.13c-0.25-.15-0.67.44-0.82,0.82a2.31,2.31,0,0,0-1.23-.14,1,1,0,0,0-.82-0.82,9.83,9.83,0,0,1,.54-1.5,10.8,10.8,0,0,1,1.91-.14c-0.07.5-.23,0.34,0.27,0.27C102,219.27,102.46,219,102.45,220.13Z"/>
  <path d="M83.25,218.49c-0.26.3,0.16,0.87,0.27,0.68,0.15,0-.23.88,0.14,1.23a1.78,1.78,0,0,0-.82.68,1.54,1.54,0,0,0-1.09,0,1.26,1.26,0,0,0-.82-1c-0.08-.59.55-1.06,0.14-1.23-0.19-.61.24,0,0.41,0s0.13-.31,0-0.27A10.82,10.82,0,0,0,83.25,218.49Z"/>
  <path d="M69.76,220.67c-0.2.11-.56,0-0.27,0.55a15.44,15.44,0,0,0-2-.14,0.8,0.8,0,0,0-.27-0.82A1.7,1.7,0,0,1,69,218.6l0.26,0a0.64,0.64,0,0,0-.14.41c0.23,0,.26-0.11.27-0.27a4,4,0,0,1,.54.41C69.52,219.33,69.78,220.41,69.76,220.67Z"/>
  <path d="M109.54,222.17a9.45,9.45,0,0,0-.14,1.5c-0.34-.34-0.59.1-0.54,0.54a1.43,1.43,0,0,1-1.63-2.32,3,3,0,0,0,1.63-.27C109.1,222,109,222.25,109.54,222.17Z"/>
  <path d="M100.27,222.44a2.08,2.08,0,0,0-.14,1.36c-0.13.07-.58-0.33-0.27,0.41-0.57-.28-0.74.25-1.77,0.14a3.74,3.74,0,0,0,.27-0.41,3.29,3.29,0,0,1-.54.14c0.41-.38-0.27-0.64-0.27-1,0-.68.44-0.69,0.68-1.36,0.42,0.3,1.11.1,1.77,0.41C99.93,222.67,99.77,222.51,100.27,222.44Z"/>
  <path d="M104.91,222.33c-0.16.32-.43,1.1,0,1.36-0.09.41-.29-0.13-0.54,0,0,0.13.17,0.11,0.27,0.14-0.12.4-.2,0.15-0.54,0.14a0.64,0.64,0,0,1,.14.41,5.23,5.23,0,0,1-1.91-.41c0.17-.22-0.27-1,0-1.77,0.67-.47,1-0.22,1.91-0.41a0.55,0.55,0,0,0,.55.55h0.12Z"/>
  <path d="M112,221.9c-0.06-.35,1.68.19,1.91-0.14-0.15.73,0.32,0.8,0.41,1.63a0.55,0.55,0,0,0-.54.82c-0.54,0-1.58-.4-2.32-0.41A8.55,8.55,0,0,1,112,221.9Z"/>
  <path d="M94.55,222.17a0.86,0.86,0,0,0,.68.55c0.06,0.81-.46,1.08-0.82,1.77a1.78,1.78,0,0,0-1.23,0,0.79,0.79,0,0,0-.68-0.82,6.47,6.47,0,0,0,0-1.36c0.23,0.25.54,0,.54-0.41C93.77,221.7,95.87,222.48,94.55,222.17Z"/>
  <path d="M81.61,223.67c-0.37-.12-0.61.32-0.82,1a0.68,0.68,0,0,0-.82.14,6.26,6.26,0,0,0-1.23-.82c-0.18-.82.54-1.12,0.41-1.77a3,3,0,0,0,1.5-.14c0.47,0.13-.13.55,0.68,0.41A9.22,9.22,0,0,1,81.61,223.67Z"/>
  <path d="M86.11,223c0.33,0.33-.52.77-0.14,1.23-0.5-.07-0.34-0.23-0.27.27a10.34,10.34,0,0,1-1.77-.14c-0.16-.48-0.17-0.48-0.54-0.54a1.4,1.4,0,0,0,.14-1.23,2.81,2.81,0,0,1,2.32-.41c-0.65.43,0.45,0.43,0,1A0.21,0.21,0,0,0,86.1,223v0Z"/>
  <path d="M69.76,222.58c0.09-.69.6,0.55,0.54-0.41a2.65,2.65,0,0,1,2,1,4.23,4.23,0,0,1-.68,1.63c-0.85.23-1.31-.75-1.91-0.27,0.19-.6-0.34-1.2-0.14-1.77C69.56,222.9,70.62,222.53,69.76,222.58Z"/>
  <path d="M76.85,222.33c-0.44.63,0.13,0.65,0,1.63-0.28-.08-0.32.26-0.14,0.27,0,0.29-.72-0.15-0.27.27-0.44.39-1.09,0-1.77,0.14-0.49-.29.14-0.86-0.54-0.55,0.08-.3.33-1.11,0-1.36,0.09-.41.29,0.13,0.54,0-0.09-.14-0.31-0.14-0.27-0.41A19.38,19.38,0,0,1,76.85,222.33Z"/>
  <path d="M67.31,222.33c-0.35.4-.15,0.68,0.41,0.82,0,0.08-.34.53,0,0.55a3.17,3.17,0,0,0-.82,1.09H65.68a2.64,2.64,0,0,0-.82-1.09,1.59,1.59,0,0,0,.27-1.23C65.78,222.47,66.11,222.33,67.31,222.33Z"/>
  <path d="M109.4,228c-0.32-.62-0.07-0.79-0.14-2,0.4,0.32,2.2-1,2.59.41,0-.19-0.44.28,0.14,0.27,0.08,0.5-.91,1.19-0.41,1.23C111.18,228.56,110.46,228,109.4,228Z"/>
  <path d="M101.64,225.71c0.24,0.35.45,0.82,1,.55-0.06.38-.4,1.23,0,1.63a5.4,5.4,0,0,1-1.91.54c-0.1-.47-0.38-0.77-0.82-0.54a9.15,9.15,0,0,1,.27-1.91c0.25,0.17.87,0.1,0.55-.14C100.38,225.44,101.69,226.33,101.64,225.71Z"/>
  <path d="M106.4,225.71c0,0.29.27,0.77,0.68,0.55-0.2.28,0.16,0.8,0,1.5-0.35-.08-0.49,0-0.41.41a9.7,9.7,0,0,0-1.91,0c0.21-.51.33-0.38-0.27-0.27a6.89,6.89,0,0,0,.14-1.77c0.36,0.21.42,0.15,0.27-.27C105.62,226.27,105.36,225.65,106.4,225.71Z"/>
  <path d="M116.48,226.66c0.34-.21-0.27.64-0.14,1.09-0.51.4-1.06,0.14-1.36,0.55-0.29-.17-0.74-0.88-1-0.68a6.84,6.84,0,0,1-.14-1.5c0.28,0.12.75-.21,0.41-0.27A1.73,1.73,0,0,1,116.48,226.66Z"/>
  <path d="M83.66,228.33c-0.59.09-1,.34-1.63,0.41,0-.55-0.35-0.36-0.68-0.27,0.3-.44.23-0.47-0.27-0.68,0-.41.43-1,0-1.23a2.12,2.12,0,0,0,1.23-.68,1.37,1.37,0,0,0,1.23.27C84.18,226.76,83.54,227.57,83.66,228.33Z"/>
  <path d="M97,227.89c-0.28.71-1.46,0.13-1.77,0.54a0.88,0.88,0,0,1,.14-0.54c-0.65.44,0-.29-0.55-0.27a12.06,12.06,0,0,1,.27-1.5,5.05,5.05,0,0,0,1.77-.27c-0.25.48,0.27,0.64,0.68,0.82,0,0.6-.49,1-0.27,1.5-0.23,0-.26.11-0.27,0.27C96.6,228.33,97.18,228.14,97,227.89Z"/>
  <path d="M88.18,226.26c-0.35.19,0.16,0.65,0.41,0.68a2.63,2.63,0,0,1-.82,1.5c-0.51.2-.92-0.08-1.5,0.14,0.21-.36.15-0.42-0.27-0.27a4,4,0,0,0-.27-1.63c0.49-.43.64-0.15,0.68-0.68,0.76,0.14,1.54,0,2,.41C88.34,226.62,88.11,226.48,88.18,226.26Z"/>
  <path d="M90.88,227.75a1.08,1.08,0,0,0-.41.14,2.53,2.53,0,0,0,0-1.23c0.36,0.19.65-.65,1.23-0.68s0.82,0.57,1.36.27a4.15,4.15,0,0,0-.14,1.77c-0.7-.06-0.36.29-0.54,0.54a2.39,2.39,0,0,0-1.5-.14C90.61,228.12,90.61,228.07,90.88,227.75Z"/>
  <path d="M74.4,227.89c-0.41.26-.76,0.93-0.82,0.82-0.44.26-.65-0.22-1.5-0.14,0.46-.31,0-0.52-0.27-0.54,0.26-.26,0-0.34,0-0.68,0.33-.23.64-0.37,0.41-0.82a1.09,1.09,0,0,1,.41.14,0.63,0.63,0,0,1-.14-0.41,1.62,1.62,0,0,1,2.18,1.22C74.41,227.81,74.18,227.22,74.4,227.89Z"/>
  <path d="M76.85,226.39a2.4,2.4,0,0,1,2.18.14,17.43,17.43,0,0,1,0,1.77c-0.32-.09-1.09,0-0.82.54a8.77,8.77,0,0,1-1.77-1,1.78,1.78,0,0,0,0-1.23C76.74,226.89,77.18,226.65,76.85,226.39Z"/>
  <path d="M70,227.89c-0.28.24-1.37,1.18-2.32,0.82a1.08,1.08,0,0,1,.14-0.41c-0.71.43,0-.57-0.68-0.14a2.58,2.58,0,0,1,.82-1.91c1.06-.15,1.23.34,1.77,0.27A2.56,2.56,0,0,0,70,227.89Z"/>
  <path d="M111.85,229.53c0.3,0,1.48-.91,1.91.14,0.14-.09.14-0.31,0.41-0.27a3.29,3.29,0,0,0-.14.54c0.13,0,.11-0.17.14-0.27,0.55,0.15-.19,1,0.14,1.36-0.28-.16-0.65.21-0.27,0.27,0,0-1,.1-0.27.27-0.42.33-1-.21-1.5,0.14-0.21-.31.1-0.51-0.54-0.27,0.49-.49-0.24-0.86-0.14-1.36C111.51,229.8,112.33,229.76,111.85,229.53Z"/>
  <path d="M98,229.39c0.29,0.52,1.12-.18,1.77-0.14a3.69,3.69,0,0,0-.27.41c0.41-.19.79-0.11,0.82,0.41a4.92,4.92,0,0,0-.14,1.5c-0.41-.08-0.69.44-2,0.14,0-.32-0.09-0.64-0.54-0.55a1.27,1.27,0,0,0,.14-1.36C98.11,230.11,98.12,229.76,98,229.39Z"/>
  <path d="M104.63,229.39a0.4,0.4,0,0,0,.27.27c0,1-.32,1.62-0.27,2-0.62-.21-0.72.31-1.63,0.14a3.84,3.84,0,0,0-.68-0.82,1.76,1.76,0,0,0,0-1.23,1.12,1.12,0,0,0,.27.27C102.75,229.07,103.51,229.4,104.63,229.39Z"/>
  <path d="M108.85,231.84a1,1,0,0,0-1.23,0A0.74,0.74,0,0,0,107,231h0a1.41,1.41,0,0,0,0-1.09c0.09-.14.31-0.14,0.27-0.41,1-.38,1.38,0,2-0.27,0,0.36-.28.45,0.27,0.41-0.35.17-.27,0.46,0.27,0.41A3,3,0,0,1,108.85,231.84Z"/>
  <path d="M83.79,229.66c0.13,0.23.5,0.48,0.41-.14a2.25,2.25,0,0,0,1.36,0c-0.1.43,0.44,0.91,0.54,0.68a3.45,3.45,0,0,1,.14,1.23c-0.72-.2,0,0.74-0.68.27a0.64,0.64,0,0,1,.14.41c-0.52-.4-1,0.17-1.77-0.14,0.35,0.13,0-.9-0.27-0.27,0.27-.58-0.17-0.6-0.14-1.23C83.9,230.79,84,230,83.79,229.66Z"/>
  <path d="M95.37,229.93c0,0.12,0,.13-0.14.14a4,4,0,0,0,0,1.36c-0.15-.33-0.71.21-0.41,0.27-0.64.49-1.54-.32-2.18-0.14,0-.32.63-0.57-0.14-0.54-0.13-.25.41-0.46,0-0.54,0.45-.71.53-1.12,2-1C94.77,229.86,94.87,230.22,95.37,229.93Z"/>
  <path d="M67.59,230.33c0.21,0.11,0,1,.14,1.23-0.39.83-1.83,0.49-2.18,0.68-0.32-.2.31-0.72-0.41-0.41,0-.49.37-1.29,0-1.5,0.09-.41.29,0.13,0.54,0,0-.23-0.11-0.26-0.27-0.27,0.29-.35,1.55-0.17,1.91-0.14S67.18,230.71,67.59,230.33Z"/>
  <path d="M76.3,184.44c-0.19.53,0.1,1.64-.54,2.32a4.43,4.43,0,0,0-1.63,0c-0.11-.42-0.38-0.33-0.14-0.82-0.68.72,0-.91-0.27-1.36a3,3,0,0,1,2.31-.41C75.82,184.68,75.7,184.55,76.3,184.44Z"/>
  <path d="M83.79,191.66h1.39c-0.31.42,0,.44,0.41,0.27-0.42.46-.1,0.46,0.27,0.54a1.25,1.25,0,0,0-.14,1.23,1.14,1.14,0,0,0-1,.68c-0.76,0-.7-0.44-1.36-0.27-0.46-.58-0.18-0.89-0.41-1.77A1.14,1.14,0,0,0,83.79,191.66Z"/>
  <path d="M74.12,214.81a1.56,1.56,0,0,1,2.32,2c-0.44.33-1.27,0-2,.14,0-.23.11-0.26,0.27-0.27C73.78,216.41,74.48,215.09,74.12,214.81Z"/>
</g>
<rect width="93" height="7.33" x="28.35" y="236.99" fill="#92278f"/>
<path fill="#f1ae88" d="M35,54V72.43a13.68,13.68,0,1,0,0,27v23.8h71a20,20,0,0,0,20-20V54H35Z"/>
<path fill="#ede828" d="M125.8,59.82H55.43c-17,0-13.88,1.7-14.07-18.08h0c0-9.94,6.33-18.08,14.07-18.08H125.8c7.74,0,14.07,8.14,14.07,18.08h0C139.87,51.69,133.54,59.82,125.8,59.82Z"/>
<ellipse cx="45.08" cy="15.66" fill="#ede828" stroke="#c5c62e" stroke-width="2" stroke-miterlimit="10" rx="16.67" ry="14.66"/>
<path fill="#d2ca2c" stroke="#ece828" stroke-miterlimit="10" d="M37.18,23.74S6.32,20.43,6.32,57.91V187.33s34.91-26.19,33.8-53c0,0-4-16.17,0-26.46L63.61,56.43S69.51,25.21,37.18,23.74Z"/>
<path fill="#ede828" stroke="#fff" stroke-miterlimit="10" d="M31.36,23.74S0.5,20.43.5,57.91V187.33s34.91-26.19,33.8-53c0,0-4-16.17,0-26.46L57.79,56.43S63.7,25.21,31.36,23.74Z"/>
<rect width="51.78" height="8.3" x="19.19" y="20.1" fill="#8857a3" stroke="#fff" stroke-miterlimit="10" rx="3.67" ry="3.67"/>
<circle cx="45.08" cy="24.25" r="13.67" fill="#f1eb57" stroke="#80499d" stroke-width="2" stroke-miterlimit="10"/>
<circle cx="45.08" cy="24.25" r="8.79" fill="#80499d"/>
<circle cx="45.1" cy="24.27" r="6.22" fill="#fff" transform="rotate(-48.11 45.097 24.28)"/>
<circle cx="45.08" cy="24.25" r="4.15" fill="#906bae"/>
    </symbol>
 -->

    <symbol id="plus" viewBox="0 0 240 240">
      <title>plus</title>
      <rect width="240" height="20" y="110" class="2e5b9b35-26ca-4949-ba47-57902e8b8040"/>
      <rect width="240" height="20" x="136.84" y="222.64" transform="rotate(90 244.74 107.9)"/>
    </symbol>
    <symbol id="minus" viewBox="0 0 240 20">
      <title>minus-icon</title>
      <rect width="240" height="20"/>
    </symbol>
    <symbol id="circle" viewBox="0 0 200 200">
      <title>circle sun</title>
       <circle cx="100"  cy="100" r="100" />
    </symbol>
    <symbol id="twitter" viewBox="0 0 512 512" >
      <title>Twitter</title>
      <path d="M462 128.22c-15.16 6.72-31.45 11.27-48.55 13.31 17.45-10.46 30.85-27.02 37.16-46.76-16.33 9.69-34.42 16.72-53.68 20.51-15.42-16.43-37.39-26.69-61.7-26.69-54.56 0-94.67 50.92-82.34 103.79-70.25-3.52-132.53-37.18-174.22-88.31-22.14 37.98-11.48 87.69 26.16 112.85-13.85-.44-26.89-4.24-38.28-10.57-.92 39.16 27.15 75.78 67.8 83.95-11.9 3.24-24.93 3.98-38.17 1.45 10.75 33.58 41.97 58.02 78.96 58.7C139.6 378.28 94.85 390.72 50 385.44c37.41 23.98 81.84 37.98 129.57 37.98 156.93 0 245.6-132.55 240.25-251.43 16.52-11.93 30.85-26.82 42.18-43.77z"/>
    </symbol>
    <symbol id="facebook" viewBox="0 0 512 512" >
      <title>Facebook</title>
      <path d="M204.067 184.692h-43.144v70.426h43.144V462h82.965V254.238h57.882l6.162-69.546h-64.044v-39.615c0-16.398 3.302-22.89 19.147-22.89h44.896V50h-57.441c-61.734 0-89.567 27.179-89.567 79.231v55.461z"/>
    </symbol>
    <symbol id="linkedin" viewBox="0 0 512 512" >
      <title>LinkedIn</title>
      <path d="M430.12 251.98v159h-92.19V262.63c0-37.27-13.33-62.71-46.7-62.71-25.47 0-40.63 17.14-47.3 33.72-2.43 5.93-3.06 14.18-3.06 22.48V411h-92.22s1.24-251.29 0-277.32h92.21v39.31c-.19.29-.43.61-.61.9h.61v-.9c12.25-18.87 34.13-45.82 83.1-45.82 60.67-.01 106.16 39.63 106.16 124.81zM52.18 0C20.64 0 0 20.69 0 47.9c0 26.62 20 47.94 51 47.94h.62c32.16 0 52.16-21.32 52.16-47.94C103.13 20.69 83.73 0 52.18 0zM5.47 411h92.19V133.68H5.48V411z"/>
    </symbol>
    <symbol id="angelco" viewBox="0 0 21.9 31.4">
      <title>angelco</title>
      <path d="M18.3 13.4c1.3.2 2.2.8 2.7 1.6s.8 2.2.8 4c0 3.6-1.1 6.6-3.3 8.9-2.2 2.3-5 3.5-8.4 3.5-1.3 0-2.6-.2-3.9-.7-1.3-.5-2.3-1.2-3.2-2-1-.9-1.8-2-2.3-3-.4-1.1-.7-2.2-.7-3.3 0-1.2.3-2.2.8-2.9.5-.7 1.4-1.1 2.5-1.4-.2-.5-.4-.9-.5-1.3-.1-.3-.2-.6-.2-.8 0-.6.3-1.3 1-2s1.3-1 1.9-1c.3 0 .5 0 .8.1.3.1.6.2 1 .5-.9-3-1.8-5.5-2.3-7.2-.5-1.7-.7-2.8-.7-3.5 0-.9.2-1.6.7-2.1C5.4.3 6.1 0 6.9 0c1.3 0 3 3 5.1 9.1.4 1 .6 1.8.8 2.4.2-.4.4-1.1.7-1.9 2.1-6 3.9-9 5.3-9 .7 0 1.3.2 1.8.7.4.5.7 1.2.7 2 0 .6-.2 1.8-.7 3.5-.6 1.7-1.3 3.9-2.3 6.6zM2.9 22.2c.2.2.5.6.8 1.1.9 1.3 1.8 2 2.6 2 .3 0 .5-.1.7-.3.2-.2.3-.4.3-.5 0-.2-.1-.6-.4-1.1-.3-.5-.7-1.1-1.2-1.7-.6-.7-1.1-1.3-1.4-1.6-.4-.3-.7-.5-.9-.5-.5 0-1 .3-1.4.8-.4.5-.6 1.2-.6 1.9 0 .6.1 1.2.4 2 .3.7.7 1.5 1.3 2.2.9 1 1.9 1.9 3.2 2.5 1.3.6 2.6.9 4.2.9 2.8 0 5.1-1 7-3.1 1.9-2.1 2.8-4.7 2.8-7.9 0-1-.1-1.7-.2-2.3-.1-.6-.4-1-.7-1.2-.6-.5-1.7-.9-3.4-1.3s-3.5-.6-5.3-.6c-.5 0-.9.1-1.1.3-.2.2-.3.5-.3.9 0 1 .5 1.7 1.6 2.1 1.1.4 2.9.7 5.3.7h.9c.2 0 .4.1.5.2.1.2.2.4.2.7-.2.2-.7.5-1.5.8-.8.3-1.3.6-1.7.9-.9.6-1.6 1.4-2.1 2.3-.5.9-.8 1.7-.8 2.5 0 .5.1 1 .3 1.7.2.7.3 1.1.3 1.2v.4c-.6 0-1.1-.4-1.5-1.1-.4-.7-.5-1.6-.5-2.8v-.2c-.1.1-.2.2-.3.2-.1 0-.2.1-.4.1h-.4c-.1 0-.2-.1-.4-.1 0 .2.1.3.1.5v.4c0 .5-.2 1-.6 1.4-.4.4-.9.6-1.5.6-.9 0-1.8-.4-2.8-1.3-.9-.9-1.4-1.7-1.4-2.6 0-.2 0-.3.1-.4 0-.5.1-.6.2-.7zm6.5.5c.2 0 .5-.1.7-.3.2-.2.3-.5.3-.7 0-.3-.2-.9-.6-1.9-.4-1-.9-2-1.5-2.9-.4-.7-.9-1.3-1.3-1.6-.4-.4-.8-.5-1.2-.5-.3 0-.6.2-1 .6-.4.4-.5.7-.5 1.1 0 .3.2.9.5 1.6.4.7.8 1.4 1.4 2.2.6.8 1.2 1.5 1.8 2 .6.2 1 .4 1.4.4zm2.1-10.4L9.1 5.6c-.6-1.7-1-2.9-1.4-3.4-.3-.5-.6-.8-1-.8-.3 0-.5.1-.7.3-.3.3-.4.6-.4 1 0 .7.3 1.8.8 3.4.5 1.6 1.3 3.8 2.3 6.4.1-.2.2-.3.4-.3.2-.1.4-.1.6-.1h.5c.3.1.7.1 1.3.2zm2.4 6.5c-.6 0-1.2-.1-1.8-.2-.6-.1-1.1-.2-1.6-.4.2.5.4.9.6 1.4.2.5.3.9.4 1.4.3-.4.7-.8 1.1-1.2.5-.4.9-.7 1.3-1zm2.9-5.8c1-2.6 1.7-4.8 2.3-6.5.5-1.7.8-2.7.8-3.1 0-.4-.1-.7-.3-1-.2-.2-.4-.3-.7-.3-.4 0-.8.3-1.2 1-.4.7-.9 1.7-1.4 3.2l-2.2 6.2 2.7.5z"/>
    </symbol>
    <symbol viewBox="0 0 953.4 373.37" id="cloud-icon">
      <title>Cloud vector</title>
      <path d="M469.86,443.15c-156,0-284.94,0-413.84,0-26.19,0-47.39-17.24-50.77-42.78C3,383.29,10.72,360.09,37.48,351c6.31-2.14,10.87-4.77,14.74-10.74,12.29-19,31.37-27.1,53-30,3.54-.47,5.91-1.62,8.06-4.43,21.84-28.57,51.15-41,86.67-39.26,3.53,0.17,5.09-.41,6.92-3.42,18.76-31,46-49.41,82.11-53.42,11.53-1.28,18.6-6.67,26-15.26,15.89-18.51,36.4-31.12,59.9-38.08,16-4.74,32.43-7.89,49.31-6.76,4.21,0.28,6.61-1.1,9-4.93,20-32,47.94-54.67,83.94-66,53.16-16.78,103.36-9.54,148.82,23.11,30.82,22.14,51,52.56,56.3,90.11,2.23,15.79,8.64,20.11,22.07,24.94C781.22,230.13,805,256.65,814,295.39c1,4.27,1.93,5.8,7.3,5.44,30.46-2,55.55,8.71,72.93,34.34,3.39,5,6.65,5.83,11.77,5.89,29.61,0.34,53.59,23.9,52.2,52.18-1.07,21.84-13.44,36.17-33.2,44.63a47.93,47.93,0,0,1-20.4,3.78c-15.67-.35-31.35-0.47-47-0.05C719.32,445.31,581,441.72,469.86,443.15Z" class="cloud-1" transform="translate(-4.88 -69.97)"/>
      <path d="M875.58,430.17H56.27c-16.61,0-30.7-9.14-36.31-23.49-7.81-20,6.63-42.53,30-46,4.39-.64,6.23-2,8.19-5.83,10.92-21.14,29-31.07,52.35-31.6,4.87-.11,8-1.47,10.59-5.53,17.8-27.74,44-40.33,76.1-37.79,12.36,1,16.79-2.45,22.5-12.4,14.94-26.08,38.76-40.3,68.33-45,2.38-.38,4.94-1.88,7.05-1.37,13.41,3.26,19.69-5.55,26.52-14.47,15.51-20.23,36.83-32,60.75-39.08,16.86-5,34.21-7,51.79-3.8,3.55,0.64,4.74-1.7,6-4.18,21.53-42.36,57.28-65.86,102.77-74.23,43.41-8,83.33,2.26,118.61,29.21C687,134.12,702.33,160.15,709.55,191c1.94,8.27,3.14,16.94,2.34,25.63-0.36,3.88,1,5.51,5.24,6.2,16.07,2.59,31.46,7.28,45,16.9,24.68,17.59,38.47,41.69,42,71.56,0.59,4.94.88,6.54,6.32,4.86,30.27-9.34,65.72,4.8,77.61,35.39,2.07,5.33,5.24,4,9,3.15,18.5-4,39.51,7.16,46.23,24.49,7.54,19.45-5.07,42-26.63,47.7C903.11,430.45,889.26,427.44,875.58,430.17Z" class="cloud-2" transform="translate(-4.88 -69.97)"/>
    </symbol>
  </defs>
</svg>
